<svg width="254" height="53" viewBox="0 0 254 53" fill="none" xmlns="http://www.w3.org/2000/svg">
<circle cx="26.5" cy="26.5" r="26.5" fill="#F7FFFF"/>
<path d="M37.1009 15.6634C43.6003 25.1901 38.51 32.7519 38.51 32.7519C34.9152 39.9565 28.617 40.4328 26.6327 40.3733C26.2013 40.3733 25.7987 40.3733 25.3673 40.3733C23.383 40.403 17.0848 39.9267 13.49 32.7519C13.49 32.7519 8.39967 25.1901 14.8991 15.6634C14.9567 15.574 14.8416 15.4847 14.7841 15.5443C13.1449 17.1519 8.57222 22.3321 9.03236 29.9237C9.03236 29.9237 9.03236 36.771 15.3593 42.1298C15.3593 42.1298 19.9607 46 26 46C32.0393 46 36.6407 42.1298 36.6407 42.1298C42.9676 36.771 42.9676 29.9237 42.9676 29.9237C43.4278 22.3321 38.8551 17.1519 37.2159 15.574C37.1584 15.4847 37.0433 15.6038 37.1009 15.6634Z" fill="#B8B71D"/>
<path d="M20.5646 28.3458C18.1201 26.7679 15.7907 23.8504 15.9345 18.4916C15.9345 18.4023 16.0782 18.3725 16.107 18.4618C16.7109 20.1885 19.3567 26.3511 26.0288 26.3511C32.7008 26.3214 35.3178 20.1885 35.9505 18.4618C35.9793 18.3725 36.1231 18.4023 36.1231 18.4916C36.2381 23.8504 33.9374 26.7679 31.4929 28.3458C28.1281 30.4893 23.8719 30.4893 20.5646 28.3458Z" fill="#B8B71D"/>
<path d="M22.3189 22.3321C20.6509 21.2305 19.0404 19.1763 19.0691 15.4252C19.0691 15.3359 19.1842 15.3061 19.2417 15.3954C19.7306 16.7649 21.6287 20.9031 26.1438 20.9031C30.6589 20.9031 32.5282 16.7649 33.0459 15.3954C33.0746 15.3061 33.2184 15.3359 33.2184 15.4252C33.276 19.1763 31.6655 21.2008 29.9687 22.3321C27.6392 23.8802 24.6483 23.8802 22.3189 22.3321Z" fill="#B8B71D"/>
<path d="M26.5752 7C26.5752 7 28.0131 8.78626 26.5752 10.2748L24.5908 12.1206C23.9006 12.7458 23.498 13.6389 23.498 14.5618C23.498 15.1573 23.613 15.8122 24.0156 16.5267C24.0156 16.5267 24.3608 17.271 25.4823 17.5687C26.2588 17.7771 27.0641 17.7176 27.7543 17.3305C28.1569 17.0924 28.5595 16.7053 28.8184 16.1099C28.9909 15.7229 29.0197 15.2763 28.8471 14.8893C28.7321 14.6214 28.502 14.3237 28.0706 14.2344C27.7255 14.145 27.3804 14.2344 27.1216 14.5023C26.9203 14.7107 26.8052 15.0382 27.0928 15.455C27.0928 15.455 27.4955 16.8542 25.7124 16.4374C25.5111 16.3779 25.3386 16.2885 25.1948 16.1397C24.8497 15.7527 24.4183 14.9489 25.3673 13.758L27.8406 11.1679C28.0706 10.9298 28.2432 10.6321 28.3582 10.2748C28.4445 9.91756 28.5308 9.44122 28.4445 8.90534C28.3295 8.28015 27.9556 7.7145 27.4379 7.38702C27.1503 7.2084 26.8915 7.05954 26.5752 7Z" fill="#B8B71D"/>
<path d="M69.8281 34V16.8203H72.1602L81.1836 30.3086V16.8203H83.3633V34H81.0312L72.0078 20.5V34H69.8281ZM86.5039 25.6328C86.5039 22.7812 87.2695 20.5508 88.8008 18.9414C90.332 17.3242 92.3086 16.5156 94.7305 16.5156C96.3164 16.5156 97.7461 16.8945 99.0195 17.6523C100.293 18.4102 101.262 19.4688 101.926 20.8281C102.598 22.1797 102.934 23.7148 102.934 25.4336C102.934 27.1758 102.582 28.7344 101.879 30.1094C101.176 31.4844 100.18 32.5273 98.8906 33.2383C97.6016 33.9414 96.2109 34.293 94.7188 34.293C93.1016 34.293 91.6562 33.9023 90.3828 33.1211C89.1094 32.3398 88.1445 31.2734 87.4883 29.9219C86.832 28.5703 86.5039 27.1406 86.5039 25.6328ZM88.8477 25.668C88.8477 27.7383 89.4023 29.3711 90.5117 30.5664C91.6289 31.7539 93.0273 32.3477 94.707 32.3477C96.418 32.3477 97.8242 31.7461 98.9258 30.543C100.035 29.3398 100.59 27.6328 100.59 25.4219C100.59 24.0234 100.352 22.8047 99.875 21.7656C99.4062 20.7188 98.7148 19.9102 97.8008 19.3398C96.8945 18.7617 95.875 18.4727 94.7422 18.4727C93.1328 18.4727 91.7461 19.0273 90.582 20.1367C89.4258 21.2383 88.8477 23.082 88.8477 25.668ZM105.91 34V16.8203H113.527C115.059 16.8203 116.223 16.9766 117.02 17.2891C117.816 17.5938 118.453 18.1367 118.93 18.918C119.406 19.6992 119.645 20.5625 119.645 21.5078C119.645 22.7266 119.25 23.7539 118.461 24.5898C117.672 25.4258 116.453 25.957 114.805 26.1836C115.406 26.4727 115.863 26.7578 116.176 27.0391C116.84 27.6484 117.469 28.4102 118.062 29.3242L121.051 34H118.191L115.918 30.4258C115.254 29.3945 114.707 28.6055 114.277 28.0586C113.848 27.5117 113.461 27.1289 113.117 26.9102C112.781 26.6914 112.438 26.5391 112.086 26.4531C111.828 26.3984 111.406 26.3711 110.82 26.3711H108.184V34H105.91ZM108.184 24.4023H113.07C114.109 24.4023 114.922 24.2969 115.508 24.0859C116.094 23.8672 116.539 23.5234 116.844 23.0547C117.148 22.5781 117.301 22.0625 117.301 21.5078C117.301 20.6953 117.004 20.0273 116.41 19.5039C115.824 18.9805 114.895 18.7188 113.621 18.7188H108.184V24.4023ZM123.125 34V16.8203H129.57C130.883 16.8203 131.934 16.9961 132.723 17.3477C133.52 17.6914 134.141 18.2266 134.586 18.9531C135.039 19.6719 135.266 20.4258 135.266 21.2148C135.266 21.9492 135.066 22.6406 134.668 23.2891C134.27 23.9375 133.668 24.4609 132.863 24.8594C133.902 25.1641 134.699 25.6836 135.254 26.418C135.816 27.1523 136.098 28.0195 136.098 29.0195C136.098 29.8242 135.926 30.5742 135.582 31.2695C135.246 31.957 134.828 32.4883 134.328 32.8633C133.828 33.2383 133.199 33.5234 132.441 33.7188C131.691 33.9062 130.77 34 129.676 34H123.125ZM125.398 24.0391H129.113C130.121 24.0391 130.844 23.9727 131.281 23.8398C131.859 23.668 132.293 23.3828 132.582 22.9844C132.879 22.5859 133.027 22.0859 133.027 21.4844C133.027 20.9141 132.891 20.4141 132.617 19.9844C132.344 19.5469 131.953 19.25 131.445 19.0938C130.938 18.9297 130.066 18.8477 128.832 18.8477H125.398V24.0391ZM125.398 31.9727H129.676C130.41 31.9727 130.926 31.9453 131.223 31.8906C131.746 31.7969 132.184 31.6406 132.535 31.4219C132.887 31.2031 133.176 30.8867 133.402 30.4727C133.629 30.0508 133.742 29.5664 133.742 29.0195C133.742 28.3789 133.578 27.8242 133.25 27.3555C132.922 26.8789 132.465 26.5469 131.879 26.3594C131.301 26.1641 130.465 26.0664 129.371 26.0664H125.398V31.9727ZM150.5 16.8203H152.773V26.7461C152.773 28.4727 152.578 29.8438 152.188 30.8594C151.797 31.875 151.09 32.7031 150.066 33.3438C149.051 33.9766 147.715 34.293 146.059 34.293C144.449 34.293 143.133 34.0156 142.109 33.4609C141.086 32.9062 140.355 32.1055 139.918 31.0586C139.48 30.0039 139.262 28.5664 139.262 26.7461V16.8203H141.535V26.7344C141.535 28.2266 141.672 29.3281 141.945 30.0391C142.227 30.7422 142.703 31.2852 143.375 31.668C144.055 32.0508 144.883 32.2422 145.859 32.2422C147.531 32.2422 148.723 31.8633 149.434 31.1055C150.145 30.3477 150.5 28.8906 150.5 26.7344V16.8203ZM163.18 34V16.8203H166.602L170.668 28.9844C171.043 30.1172 171.316 30.9648 171.488 31.5273C171.684 30.9023 171.988 29.9844 172.402 28.7734L176.516 16.8203H179.574V34H177.383V19.6211L172.391 34H170.34L165.371 19.375V34H163.18ZM183.289 34V16.8203H195.711V18.8477H185.562V24.1094H195.066V26.125H185.562V31.9727H196.109V34H183.289ZM199.25 34V16.8203H205.168C206.504 16.8203 207.523 16.9023 208.227 17.0664C209.211 17.293 210.051 17.7031 210.746 18.2969C211.652 19.0625 212.328 20.043 212.773 21.2383C213.227 22.4258 213.453 23.7852 213.453 25.3164C213.453 26.6211 213.301 27.7773 212.996 28.7852C212.691 29.793 212.301 30.6289 211.824 31.293C211.348 31.9492 210.824 32.4688 210.254 32.8516C209.691 33.2266 209.008 33.5117 208.203 33.707C207.406 33.9023 206.488 34 205.449 34H199.25ZM201.523 31.9727H205.191C206.324 31.9727 207.211 31.8672 207.852 31.6562C208.5 31.4453 209.016 31.1484 209.398 30.7656C209.938 30.2266 210.355 29.5039 210.652 28.5977C210.957 27.6836 211.109 26.5781 211.109 25.2812C211.109 23.4844 210.812 22.1055 210.219 21.1445C209.633 20.1758 208.918 19.5273 208.074 19.1992C207.465 18.9648 206.484 18.8477 205.133 18.8477H201.523V31.9727ZM216.98 34V16.8203H219.254V34H216.98ZM223.18 34V16.8203H225.453V25.3398L233.984 16.8203H237.066L229.859 23.7812L237.383 34H234.383L228.266 25.3047L225.453 28.0469V34H223.18ZM237.395 34L243.992 16.8203H246.441L253.473 34H250.883L248.879 28.7969H241.695L239.809 34H237.395ZM242.352 26.9453H248.176L246.383 22.1875C245.836 20.7422 245.43 19.5547 245.164 18.625C244.945 19.7266 244.637 20.8203 244.238 21.9062L242.352 26.9453Z" fill="#F9FDFC"/>
</svg>
