<?xml version="1.0" standalone="no"?>
<!DOCTYPE svg PUBLIC "-//W3C//DTD SVG 20010904//EN"
 "http://www.w3.org/TR/2001/REC-SVG-20010904/DTD/svg10.dtd">
<svg version="1.0" xmlns="http://www.w3.org/2000/svg"
 width="3508.000000pt" height="4961.000000pt" viewBox="0 0 3508.000000 4961.000000"
 preserveAspectRatio="xMidYMid meet">

<g transform="translate(0.000000,4961.000000) scale(0.100000,-0.100000)"
fill="#000000" stroke="none">
<path d="M5530 4679 c-302 -20 -570 -113 -836 -290 -81 -54 -146 -110 -254
-218 -250 -251 -391 -484 -479 -791 -108 -377 -99 -835 24 -1190 177 -506 624
-953 1125 -1123 206 -70 284 -81 565 -81 223 0 261 2 355 22 228 50 415 130
616 263 136 90 375 326 477 469 77 109 204 357 242 475 102 312 124 701 59
1025 -63 312 -211 601 -431 842 -404 440 -883 635 -1463 597z m321 -360 c310
-40 574 -172 813 -407 303 -298 446 -642 446 -1072 0 -431 -137 -771 -434
-1078 -124 -129 -237 -211 -391 -287 -151 -75 -263 -109 -422 -130 -247 -32
-476 -5 -699 85 -375 150 -710 498 -846 880 -111 314 -110 713 4 1039 117 337
392 657 708 825 240 127 545 181 821 145z"/>
<path d="M650 2830 l0 -1800 175 0 175 0 2 1564 3 1564 996 -1562 995 -1561
177 -3 177 -2 0 1800 0 1800 -175 0 -175 0 -2 -1481 -3 -1481 -940 1479 -940
1478 -233 3 -232 2 0 -1800z"/>
<path d="M8000 2830 l0 -1800 175 0 175 0 0 1630 0 1630 365 0 c454 0 611 -15
757 -74 244 -99 424 -333 468 -609 26 -158 -3 -353 -71 -490 -94 -186 -210
-293 -404 -368 -147 -58 -232 -70 -523 -76 -208 -5 -262 -8 -258 -18 3 -8 260
-376 573 -819 l568 -805 218 -1 c119 0 217 2 217 4 0 3 -212 303 -470 667
-259 364 -469 664 -466 666 3 3 42 9 88 14 233 26 419 123 589 308 235 255
333 571 288 936 -49 397 -251 696 -584 862 -249 125 -400 142 -1232 143 l-473
0 0 -1800z"/>
<path d="M10770 2829 l0 -1802 563 6 c778 8 886 24 1113 161 152 91 253 192
336 337 103 179 144 352 135 573 -11 275 -93 479 -262 651 -83 85 -133 123
-222 170 -29 15 -53 30 -52 34 0 3 27 28 60 54 66 54 165 180 209 267 197 394
53 929 -315 1171 -236 155 -386 179 -1127 179 l-438 0 0 -1801z m1040 1451
c195 -24 300 -69 405 -175 151 -150 206 -349 155 -551 -56 -217 -210 -366
-439 -425 -89 -23 -334 -38 -618 -39 l-193 0 0 600 0 600 303 0 c166 0 341 -5
387 -10z m40 -1530 c333 -29 542 -152 656 -386 49 -102 67 -204 61 -339 -5
-131 -28 -208 -91 -316 -65 -111 -151 -191 -261 -244 -169 -82 -274 -95 -756
-95 l-339 0 0 695 0 695 308 0 c169 0 359 -5 422 -10z"/>
<path d="M13400 3453 c0 -724 4 -1220 10 -1288 30 -324 93 -507 255 -749 120
-178 205 -259 350 -331 135 -68 254 -95 458 -102 248 -9 408 22 588 112 302
151 529 455 598 801 42 210 44 264 48 1522 l5 1212 -176 0 -176 0 0 -1117 c0
-1150 -5 -1330 -40 -1503 -57 -279 -210 -490 -435 -599 -119 -58 -200 -76
-335 -76 -127 1 -205 17 -307 64 -278 130 -442 388 -482 763 -7 63 -11 519
-11 1283 l0 1185 -175 0 -175 0 0 -1177z"/>
<path d="M17660 2830 l0 -1800 170 0 170 0 2 1582 3 1583 94 -240 c52 -132
102 -258 111 -280 10 -22 48 -116 85 -210 37 -93 73 -183 80 -200 7 -16 43
-106 80 -200 37 -93 73 -183 80 -200 7 -16 43 -106 80 -200 37 -93 72 -183 79
-200 7 -16 139 -346 292 -733 l279 -702 149 2 149 3 230 580 c126 319 235 594
242 610 7 17 43 107 80 200 37 94 73 184 80 200 7 17 43 107 80 200 37 94 73
184 80 200 7 17 43 107 80 200 37 94 74 186 82 205 8 19 79 197 158 395 l144
360 0 -1577 1 -1578 175 0 175 0 0 1800 0 1800 -266 -2 -267 -3 -603 -1495
c-332 -822 -607 -1503 -611 -1513 -6 -14 -175 392 -623 1497 l-614 1516 -263
0 -263 0 0 -1800z"/>
<path d="M21850 2830 l0 -1800 930 0 930 0 0 170 0 170 -755 0 -755 0 0 655 0
655 730 0 730 0 0 165 0 165 -730 0 -730 0 0 640 0 640 755 0 755 0 0 170 0
170 -930 0 -930 0 0 -1800z"/>
<path d="M24300 2831 l0 -1801 498 0 c273 0 565 5 647 10 547 35 865 163 1178
473 266 265 441 601 513 988 22 115 30 442 14 564 -54 429 -279 862 -585 1126
-244 210 -472 322 -775 383 -224 45 -289 49 -902 53 l-588 5 0 -1801z m1275
1435 c213 -29 299 -55 445 -132 180 -96 426 -283 521 -397 134 -160 216 -354
255 -604 20 -130 23 -437 5 -563 -41 -290 -135 -515 -281 -673 -169 -183 -496
-400 -690 -457 -168 -49 -426 -70 -856 -70 l-324 0 0 1461 0 1461 403 -5 c294
-4 434 -9 522 -21z"/>
<path d="M27700 2830 l0 -1800 175 0 175 0 0 1800 0 1800 -175 0 -175 0 0
-1800z"/>
<path d="M28740 2830 l0 -1800 170 0 170 0 0 489 0 489 218 281 217 282 19
-23 c10 -13 264 -359 564 -770 l545 -748 215 0 c176 0 213 2 209 14 -4 10
-1271 1761 -1317 1821 -5 6 277 384 656 880 365 479 664 873 664 878 0 4 -100
7 -222 6 l-223 0 -772 -1026 -773 -1025 0 1026 0 1026 -170 0 -170 0 0 -1800z"/>
<path d="M32596 4622 c-7 -12 -1448 -3554 -1454 -3575 -4 -16 8 -17 183 -15
l188 3 245 603 245 602 781 0 781 0 154 -383 c85 -210 162 -400 171 -422 10
-22 50 -122 90 -223 l73 -182 189 0 c103 0 188 3 188 7 0 5 -694 1728 -725
1798 -7 17 -173 426 -368 910 l-355 880 -190 3 c-105 1 -193 -1 -196 -6z m264
-607 c34 -88 68 -173 75 -190 7 -16 113 -286 235 -600 122 -313 228 -583 236
-599 29 -60 70 -56 -627 -56 -385 0 -639 4 -637 9 54 149 645 1608 649 1603 4
-4 34 -79 69 -167z"/>
</g>
</svg>
